<?xml version="1.0" standalone="no"?>
<!DOCTYPE svg PUBLIC "-//W3C//DTD SVG 20010904//EN"
 "http://www.w3.org/TR/2001/REC-SVG-20010904/DTD/svg10.dtd">
<svg version="1.0" xmlns="http://www.w3.org/2000/svg"
 width="86.000000pt" height="86.000000pt" viewBox="0 0 86.000000 86.000000"
 preserveAspectRatio="xMidYMid meet">
<metadata>
Created by potrace 1.16, written by Peter Selinger 2001-2019
</metadata>
<g transform="translate(0.000000,86.000000) scale(0.100000,-0.100000)"
fill="#000000" stroke="none">
<path d="M230 740 c-11 -11 -20 -29 -20 -40 0 -19 7 -20 220 -20 213 0 220 1
220 20 0 11 -9 29 -20 40 -19 19 -33 20 -200 20 -167 0 -181 -1 -200 -20z"/>
<path d="M156 628 c-9 -12 -16 -30 -16 -40 0 -17 19 -18 290 -18 271 0 290 1
290 18 0 10 -7 28 -16 40 -15 22 -18 22 -274 22 -256 0 -259 0 -274 -22z"/>
<path d="M122 524 c-21 -15 -22 -20 -22 -199 0 -177 1 -185 22 -205 21 -19 34
-20 308 -20 274 0 287 1 308 20 21 20 22 28 22 200 0 167 -1 181 -20 200 -19
19 -33 20 -308 20 -244 0 -291 -2 -310 -16z"/>
</g>
</svg>
