<?xml version="1.0" standalone="no"?>
<!DOCTYPE svg PUBLIC "-//W3C//DTD SVG 20010904//EN"
 "http://www.w3.org/TR/2001/REC-SVG-20010904/DTD/svg10.dtd">
<svg version="1.0" xmlns="http://www.w3.org/2000/svg"
 width="76.000000pt" height="76.000000pt" viewBox="0 0 76.000000 76.000000"
 preserveAspectRatio="xMidYMid meet">
<metadata>
Created by potrace 1.16, written by Peter Selinger 2001-2019
</metadata>
<g transform="translate(0.000000,76.000000) scale(0.100000,-0.100000)"
fill="#000000" stroke="none">
<path d="M94 437 c-3 -8 -4 -39 -2 -68 l3 -54 65 0 65 0 0 65 0 65 -63 3 c-47
2 -64 -1 -68 -11z"/>
<path d="M314 437 c-3 -8 -4 -39 -2 -68 l3 -54 65 0 65 0 0 65 0 65 -63 3
c-47 2 -64 -1 -68 -11z"/>
<path d="M534 437 c-3 -8 -4 -39 -2 -68 l3 -54 65 0 65 0 0 65 0 65 -63 3
c-47 2 -64 -1 -68 -11z"/>
</g>
</svg>
