<?xml version="1.0" standalone="no"?>
<!DOCTYPE svg PUBLIC "-//W3C//DTD SVG 20010904//EN"
 "http://www.w3.org/TR/2001/REC-SVG-20010904/DTD/svg10.dtd">
<svg version="1.0" xmlns="http://www.w3.org/2000/svg"
 width="88.000000pt" height="88.000000pt" viewBox="0 0 88.000000 88.000000"
 preserveAspectRatio="xMidYMid meet">
<metadata>
Created by potrace 1.16, written by Peter Selinger 2001-2019
</metadata>
<g transform="translate(0.000000,88.000000) scale(0.100000,-0.100000)"
fill="#000000" stroke="none">
<path d="M140 515 l0 -255 -35 0 c-34 0 -35 -1 -35 -40 0 -39 1 -40 35 -40 33
0 35 -2 35 -35 0 -34 1 -35 40 -35 39 0 40 1 40 35 l0 35 220 0 220 0 0 -35
c0 -34 1 -35 40 -35 39 0 40 1 40 35 0 33 2 35 35 35 34 0 35 1 35 40 0 39 -1
40 -35 40 -29 0 -35 4 -35 21 0 19 -18 92 -82 343 l-10 39 -63 -6 -64 -6 -3
57 -3 57 -187 3 -188 2 0 -255z m300 -40 l0 -215 -55 0 -55 0 0 215 0 215 55
0 55 0 0 -215z"/>
</g>
</svg>
